<?xml version="1.0" encoding="UTF-8" standalone="no"?>
<!-- Created with Inkscape (http://www.inkscape.org/) -->

<svg
   xmlns:dc="http://purl.org/dc/elements/1.1/"
   xmlns:cc="http://creativecommons.org/ns#"
   xmlns:rdf="http://www.w3.org/1999/02/22-rdf-syntax-ns#"
   xmlns:svg="http://www.w3.org/2000/svg"
   xmlns="http://www.w3.org/2000/svg"
   xmlns:sodipodi="http://sodipodi.sourceforge.net/DTD/sodipodi-0.dtd"
   xmlns:inkscape="http://www.inkscape.org/namespaces/inkscape"
   width="525.3924mm"
   height="204.30075mm"
   viewBox="0 0 525.3924 204.30075"
   version="1.1"
   id="svg36187"
   inkscape:version="0.92.3 (2405546, 2018-03-11)"
   sodipodi:docname="SupMa.svg">
  <defs
     id="defs36181" />
  <sodipodi:namedview
     id="base"
     pagecolor="#ffffff"
     bordercolor="#666666"
     borderopacity="1.0"
     inkscape:pageopacity="0.0"
     inkscape:pageshadow="2"
     inkscape:zoom="0.35"
     inkscape:cx="1469.4105"
     inkscape:cy="-33.361978"
     inkscape:document-units="mm"
     inkscape:current-layer="layer1"
     showgrid="false"
     fit-margin-top="0"
     fit-margin-left="0"
     fit-margin-right="0"
     fit-margin-bottom="0"
     inkscape:window-width="1366"
     inkscape:window-height="705"
     inkscape:window-x="-8"
     inkscape:window-y="-8"
     inkscape:window-maximized="1" />
  <metadata
     id="metadata36184">
    <rdf:RDF>
      <cc:Work
         rdf:about="">
        <dc:format>image/svg+xml</dc:format>
        <dc:type
           rdf:resource="http://purl.org/dc/dcmitype/StillImage" />
        <dc:title></dc:title>
      </cc:Work>
    </rdf:RDF>
  </metadata>
  <g
     inkscape:label="Layer 1"
     inkscape:groupmode="layer"
     id="layer1"
     transform="translate(178.02954,77.293232)">
    <path
       inkscape:connector-curvature="0"
       style="fill:#8697b1;fill-opacity:1;stroke:none;stroke-width:0.26458332px;stroke-linecap:butt;stroke-linejoin:miter;stroke-opacity:1"
       d="m -63.418218,-70.471902 -30.9562,31.237371 35.8717,20.751689 -2.5549,2.70682 -21.6669,-12.821439 -20.968202,18.7275499 33.801002,22.7536401 8.3173,0.409789 -10.0707,14.48593 -4.4436,-16.205729 -38.142902,-2.6484001 -59.9033,103.4779111 53.9166,7.28483 20.0065,-45.705742 15.999002,22.12578 25.3339,-19.97604 5.6224,8.3013 -15.5877,19.028302 19.0273,5.09839 -1.7049,14.89316 54.7227997,-5.72058 -6.1965,-23.126232 26.5922003,4.78833 0.4537,25.823752 60.757,-1.64848 -1.357,-4.22818 33.302288,-1.55442 V 97.541078 l 27.09712,28.332642 37.42608,-12.27468 0.41762,12.192 58.0817,-5.78723 -6.11542,-27.116172 42.2352,34.119882 64.18472,-16.04968 7.28318,-61.440172 -34.38908,-33.429999 -33.17931,-4.747519 18.51411,-8.7622621 -27.0247,-20.6333479 10.3477,-11.893863 -5.85391,-25.474399 -22.4736,-13.89476 -51.3121,3.09645 0.3302,7.05331 -55.6364,-4.92839 -3.45609,13.758331 -28.83961,-16.147831 -44.722798,-0.25218 -1.8521,45.049441 -1.0088,-33.659971 -32.5716,0.98393 v 33.17523 l -7.1407,2.58485 5.5387,-44.78899 H -9.2695183 l -0.4207,9.73273 -19.8529997,-15.074 z m 266.367698,16.91058 4.27209,51.9570499 -5.62649,-15.3225789 -5.2999,1.1162 1.9776,-19.43912 z m -212.9347983,8.54678 -0.9590997,23.320532 -33.1013,-18.954401 2.1663,-2.166282 22.5552,12.585812 z m 249.8339083,3.88038 6.76698,2.54455 -3.87048,5.274101 -2.14569,-0.36277 z m -136.24851,1.799881 7.49461,3.074249 -4.92842,6.03477 -2.7078,-0.13126 z m 31.98399,24.81503 11.61381,30.079291 -4.97689,-3.076811 -38.7636,0.949831 0.0111,-15.0781601 16.21348,0.66764996 z m -147.099488,3.928959 -0.215,3.9408419 18.8815997,18.6117891 -24.4894997,29.732559 -7.6574,-28.03758 -2.4567,-0.163298 z m 78.5843,3.8178609 -0.7193,21.7138991 11.6913,-0.0331 -4.9268,72.12068 -23.7133,-73.093208 -23.8446,-2.67634 24.3252,-1.058331 z m 178.079098,7.33133896 16.54731,15.11173014 -29.7806,19.18642 -4.4318,32.36185 -11.54962,-49.792309 31.13241,-1.982309 z M 179.33388,14.35704 179.85789,36.213048 148.85618,16.58843 Z m 0.445,23.992328 1.2449,59.92501 -23.2989,-17.84025 12.5352,-6.55981 z m -63.145,5.38105 14.01,5.48804 -9.40149,8.78292 -5.0214,-1.36374 z m -100.875998,11.62409 7.322,1.55909 0.046,6.86522 -11.85,-2.25205 z m 268.119988,0.29094 12.37962,2.96571 0.6672,12.00291 -11.80711,3.64215 -8.36949,-8.00728 z"
       id="path34994-2" />
    <path
       inkscape:connector-curvature="0"
       style="fill:#000000;fill-opacity:1;stroke:none;stroke-width:0.26458332px;stroke-linecap:butt;stroke-linejoin:miter;stroke-opacity:1"
       d="m -67.312768,-77.293232 -30.956246,31.23737 35.871706,20.751694 -2.5549,2.70682 -21.666884,-12.821444 -20.968228,18.727552 33.801052,22.7536379 8.31731,0.409786 -10.07071,14.4859381 -4.443648,-16.2057291 -38.142884,-2.6484 -59.90334,103.4779071 53.91661,7.28483 20.00652,-45.705742 15.999037,22.12578 25.333855,-19.97604 5.62239,8.3013 -15.58768,19.0283 19.02727,5.098392 -1.70482,14.89316 54.72276967,-5.72058 -6.19651997,-23.126232 26.5921903,4.78833 0.45371,25.823752 60.75701,-1.64848 -1.35702,-4.22818 33.302358,-1.55442 V 90.719748 l 27.09706,28.332642 37.42614,-12.27468 0.41753,12.192 58.08173,-5.78723 -6.11539,-27.116172 42.23515,34.119882 64.18471,-16.04968 7.28327,-61.440172 -34.38912,-33.4299951 -33.17935,-4.747524 18.51411,-8.76226 -27.0247,-20.6333459 10.34769,-11.893867 -5.8539,-25.474401 -22.47358,-13.894753 -51.3121,3.096446 0.3302,7.053315 -55.6364,-4.928394 -3.45612,13.758334 -28.83958,-16.147839 -44.722838,-0.252174 -1.85208,45.04944 -1.00875,-33.659974 -32.57164,0.983932 v 33.175231 l -7.14065,2.584847 5.53868,-44.788984 h -41.90236 l -0.42063,9.732725 -19.85306,-15.074001 z m 266.367708,16.910579 4.2721,51.9570499 -5.62652,-15.3225769 -5.29995,1.116198 1.97765,-19.439123 z m -212.934808,8.546783 -0.95912,23.320533 -33.10133,-18.954406 2.16628,-2.166276 22.5552,12.585806 z m 249.833838,3.880379 6.76704,2.544551 -3.87056,5.274098 -2.14562,-0.36277 z m -136.248508,1.799881 7.494618,3.074247 -4.92837,6.034775 -2.707848,-0.13126 z m 31.984078,24.815033 11.61375,30.0792879 -4.97694,-3.076813 -38.763518,0.949828 0.0108,-15.078155 16.213488,0.66765 z m -147.099548,3.928956 -0.21497,3.940837 18.8815397,18.6117969 -24.4894697,29.7325551 -7.65741,-28.0375811 -2.45671,-0.163301 z m 78.58435,3.817858 -0.71933,21.7139049 11.69128,-0.03307 -4.92683,72.1206761 -23.71328,-73.0932051 -23.84454,-2.67634 24.32513,-1.058333 z m 178.079048,7.3313399 16.54731,15.11173 -29.7806,19.1864211 -4.43177,32.36185 -11.54967,-49.792311 31.13246,-1.9823111 z M 175.43932,7.5357039 175.96333,29.391718 144.9616,9.7670939 Z m 0.44495,23.9923341 1.24489,59.92501 -23.29884,-17.84025 12.53514,-6.55981 z m -63.14498,5.38105 14.00998,5.48804 -9.4015,8.78292 -5.02139,-1.36374 z m -100.876018,11.62409 7.32202,1.55909 0.046,6.86522 -11.8499503,-2.25205 z m 268.120068,0.29094 12.37959,2.96571 0.66715,12.00291 -11.80704,3.64215 -8.36951,-8.00728 z"
       id="path34994" />
    <path
       inkscape:connector-curvature="0"
       style="color:#000000;font-style:normal;font-variant:normal;font-weight:normal;font-stretch:normal;font-size:medium;line-height:normal;font-family:sans-serif;font-variant-ligatures:normal;font-variant-position:normal;font-variant-caps:normal;font-variant-numeric:normal;font-variant-alternates:normal;font-feature-settings:normal;text-indent:0;text-align:start;text-decoration:none;text-decoration-line:none;text-decoration-style:solid;text-decoration-color:#000000;letter-spacing:normal;word-spacing:normal;text-transform:none;writing-mode:lr-tb;direction:ltr;text-orientation:mixed;dominant-baseline:auto;baseline-shift:baseline;text-anchor:start;white-space:normal;shape-padding:0;clip-rule:nonzero;display:inline;overflow:visible;visibility:visible;opacity:1;isolation:auto;mix-blend-mode:normal;color-interpolation:sRGB;color-interpolation-filters:linearRGB;solid-color:#000000;solid-opacity:1;vector-effect:none;fill:#ef3924;fill-opacity:1;fill-rule:nonzero;stroke:none;stroke-width:14;stroke-linecap:butt;stroke-linejoin:miter;stroke-miterlimit:4;stroke-dasharray:none;stroke-dashoffset:0;stroke-opacity:1;color-rendering:auto;image-rendering:auto;shape-rendering:auto;text-rendering:auto;enable-background:accumulate"
       d="m -64.544988,-70.141227 28.5936,1.464522 16.51164,12.535138 -6.15775,9.748255 -21.38526,-11.933634 -12.38269,12.382711 39.48234,22.607403 -16.05121,24.25691986 -35.56011,-1.752361 -24.712714,-16.63670886 10.431939,-9.316218 22.074085,13.062241 12.46642,-13.209005 -35.677394,-20.638532 z"
       id="path36087"
       sodipodi:nodetypes="ccccccccccccccc" />
    <path
       inkscape:connector-curvature="0"
       style="color:#000000;font-style:normal;font-variant:normal;font-weight:normal;font-stretch:normal;font-size:medium;line-height:normal;font-family:sans-serif;font-variant-ligatures:normal;font-variant-position:normal;font-variant-caps:normal;font-variant-numeric:normal;font-variant-alternates:normal;font-feature-settings:normal;text-indent:0;text-align:start;text-decoration:none;text-decoration-line:none;text-decoration-style:solid;text-decoration-color:#000000;letter-spacing:normal;word-spacing:normal;text-transform:none;writing-mode:lr-tb;direction:ltr;text-orientation:mixed;dominant-baseline:auto;baseline-shift:baseline;text-anchor:start;white-space:normal;shape-padding:0;clip-rule:nonzero;display:inline;overflow:visible;visibility:visible;opacity:1;isolation:auto;mix-blend-mode:normal;color-interpolation:sRGB;color-interpolation-filters:linearRGB;solid-color:#000000;solid-opacity:1;vector-effect:none;fill:#00ade7;fill-opacity:1;fill-rule:nonzero;stroke:none;stroke-width:14;stroke-linecap:butt;stroke-linejoin:miter;stroke-miterlimit:4;stroke-dasharray:none;stroke-dashoffset:0;stroke-opacity:1;color-rendering:auto;image-rendering:auto;shape-rendering:auto;text-rendering:auto;enable-background:accumulate"
       d="m 148.12472,-63.418112 43.4981,3.853498 -2.8086,10.992114 -22.7149,1.434016 -1.91358,10.343038 22.56658,0.51779 -1.08931,10.709434 -22.51544,0.439235 5.92781,14.565524 24.14116,-5.087038 5.31493,14.4761209 -50.13545,3.672126 -10.19577,-26.4066339 z"
       id="path36081" />
    <path
       inkscape:connector-curvature="0"
       style="color:#000000;font-style:normal;font-variant:normal;font-weight:normal;font-stretch:normal;font-size:medium;line-height:normal;font-family:sans-serif;font-variant-ligatures:normal;font-variant-position:normal;font-variant-caps:normal;font-variant-numeric:normal;font-variant-alternates:normal;font-feature-settings:normal;text-indent:0;text-align:start;text-decoration:none;text-decoration-line:none;text-decoration-style:solid;text-decoration-color:#000000;letter-spacing:normal;word-spacing:normal;text-transform:none;writing-mode:lr-tb;direction:ltr;text-orientation:mixed;dominant-baseline:auto;baseline-shift:baseline;text-anchor:start;white-space:normal;shape-padding:0;clip-rule:nonzero;display:inline;overflow:visible;visibility:visible;opacity:1;isolation:auto;mix-blend-mode:normal;color-interpolation:sRGB;color-interpolation-filters:linearRGB;solid-color:#000000;solid-opacity:1;vector-effect:none;fill:#00ade7;fill-opacity:1;fill-rule:nonzero;stroke:none;stroke-width:14;stroke-linecap:butt;stroke-linejoin:miter;stroke-miterlimit:4;stroke-dasharray:none;stroke-dashoffset:0;stroke-opacity:1;color-rendering:auto;image-rendering:auto;shape-rendering:auto;text-rendering:auto;enable-background:accumulate"
       d="M -6.4064183,-63.215547 H 20.817752 l -5.96654,48.255979 22.48802,-8.141124 v -31.294705 l 18.78335,-0.568457 1.12292,37.386339 -14.25752,14.0808079 -21.63072,0.941017 -15.2631503,0.664051 -14.55725,-14.3495179 z"
       id="path36079"
       sodipodi:nodetypes="cccccccccccc" />
    <path
       inkscape:connector-curvature="0"
       id="path36077"
       style="color:#000000;font-style:normal;font-variant:normal;font-weight:normal;font-stretch:normal;font-size:medium;line-height:normal;font-family:sans-serif;font-variant-ligatures:normal;font-variant-position:normal;font-variant-caps:normal;font-variant-numeric:normal;font-variant-alternates:normal;font-feature-settings:normal;text-indent:0;text-align:start;text-decoration:none;text-decoration-line:none;text-decoration-style:solid;text-decoration-color:#000000;letter-spacing:normal;word-spacing:normal;text-transform:none;writing-mode:lr-tb;direction:ltr;text-orientation:mixed;dominant-baseline:auto;baseline-shift:baseline;text-anchor:start;white-space:normal;shape-padding:0;clip-rule:nonzero;display:inline;overflow:visible;visibility:visible;opacity:1;isolation:auto;mix-blend-mode:normal;color-interpolation:sRGB;color-interpolation-filters:linearRGB;solid-color:#000000;solid-opacity:1;vector-effect:none;fill:#3ab54a;fill-opacity:1;fill-rule:nonzero;stroke:none;stroke-width:14;stroke-linecap:butt;stroke-linejoin:miter;stroke-miterlimit:4;stroke-dasharray:none;stroke-dashoffset:0;stroke-opacity:1;color-rendering:auto;image-rendering:auto;shape-rendering:auto;text-rendering:auto;enable-background:accumulate"
       d="m 227.85939,-58.477335 2.41586,23.990273 11.66389,1.972495 11.88868,-16.199008 z m 19.75538,-10.540445 18.09967,11.189494 4.40232,19.152341 -12.90619,14.835769 23.82025,18.1854479 -18.92186,8.957098 -30.23846,-27.6133189 3.40238,26.4242289 -23.89568,1.520322 -5.96554,-70.1047669 z"
       sodipodi:nodetypes="cccccccccccccccc" />
    <path
       inkscape:connector-curvature="0"
       id="path36075"
       style="color:#000000;font-style:normal;font-variant:normal;font-weight:normal;font-stretch:normal;font-size:medium;line-height:normal;font-family:sans-serif;font-variant-ligatures:normal;font-variant-position:normal;font-variant-caps:normal;font-variant-numeric:normal;font-variant-alternates:normal;font-feature-settings:normal;text-indent:0;text-align:start;text-decoration:none;text-decoration-line:none;text-decoration-style:solid;text-decoration-color:#000000;letter-spacing:normal;word-spacing:normal;text-transform:none;writing-mode:lr-tb;direction:ltr;text-orientation:mixed;dominant-baseline:auto;baseline-shift:baseline;text-anchor:start;white-space:normal;shape-padding:0;clip-rule:nonzero;display:inline;overflow:visible;visibility:visible;opacity:1;isolation:auto;mix-blend-mode:normal;color-interpolation:sRGB;color-interpolation-filters:linearRGB;solid-color:#000000;solid-opacity:1;vector-effect:none;fill:#ffd401;fill-opacity:1;fill-rule:nonzero;stroke:none;stroke-width:14;stroke-linecap:butt;stroke-linejoin:miter;stroke-miterlimit:4;stroke-dasharray:none;stroke-dashoffset:0;stroke-opacity:1;color-rendering:auto;image-rendering:auto;shape-rendering:auto;text-rendering:auto;enable-background:accumulate"
       d="m 92.869192,-56.526033 -0.41238,26.011346 13.002278,0.630952 13.13823,-16.08791 z m -20.37914,-9.995773 36.160078,0.203094 25.06151,14.03223 -2.04173,21.649822 -18.33428,15.73239 -20.755848,-0.855769 -0.0135,16.7953529 -22.87508,0.06355 z"
       sodipodi:nodetypes="cccccccccccccc" />
    <path
       inkscape:connector-curvature="0"
       style="color:#000000;font-style:normal;font-variant:normal;font-weight:normal;font-stretch:normal;font-size:medium;line-height:normal;font-family:sans-serif;font-variant-ligatures:normal;font-variant-position:normal;font-variant-caps:normal;font-variant-numeric:normal;font-variant-alternates:normal;font-feature-settings:normal;text-indent:0;text-align:start;text-decoration:none;text-decoration-line:none;text-decoration-style:solid;text-decoration-color:#000000;letter-spacing:normal;word-spacing:normal;text-transform:none;writing-mode:lr-tb;direction:ltr;text-orientation:mixed;dominant-baseline:auto;baseline-shift:baseline;text-anchor:start;white-space:normal;shape-padding:0;clip-rule:nonzero;display:inline;overflow:visible;visibility:visible;opacity:1;isolation:auto;mix-blend-mode:normal;color-interpolation:sRGB;color-interpolation-filters:linearRGB;solid-color:#000000;solid-opacity:1;vector-effect:none;fill:#3ab54a;fill-opacity:1;fill-rule:nonzero;stroke:none;stroke-width:14;stroke-linecap:butt;stroke-linejoin:miter;stroke-miterlimit:4;stroke-dasharray:none;stroke-dashoffset:0;stroke-opacity:1;color-rendering:auto;image-rendering:auto;shape-rendering:auto;text-rendering:auto;enable-background:accumulate"
       d="m 268.18303,10.485914 -33.66566,21.691674 -6.0079,43.87589 45.17554,36.496992 56.11752,-14.033262 6.30658,-53.2107 -30.27566,-29.433863 z m 8.70386,30.398134 22.17539,5.31233 1.25987,22.67202 -20.96669,6.46885 -15.59955,-14.9257 z"
       id="path36059"
       sodipodi:nodetypes="cccccccccccccc" />
    <path
       inkscape:connector-curvature="0"
       style="color:#000000;font-style:normal;font-variant:normal;font-weight:normal;font-stretch:normal;font-size:medium;line-height:normal;font-family:sans-serif;font-variant-ligatures:normal;font-variant-position:normal;font-variant-caps:normal;font-variant-numeric:normal;font-variant-alternates:normal;font-feature-settings:normal;text-indent:0;text-align:start;text-decoration:none;text-decoration-line:none;text-decoration-style:solid;text-decoration-color:#000000;letter-spacing:normal;word-spacing:normal;text-transform:none;writing-mode:lr-tb;direction:ltr;text-orientation:mixed;dominant-baseline:auto;baseline-shift:baseline;text-anchor:start;white-space:normal;shape-padding:0;clip-rule:nonzero;display:inline;overflow:visible;visibility:visible;opacity:1;isolation:auto;mix-blend-mode:normal;color-interpolation:sRGB;color-interpolation-filters:linearRGB;solid-color:#000000;solid-opacity:1;vector-effect:none;fill:#ef3924;fill-opacity:1;fill-rule:nonzero;stroke:none;stroke-width:14;stroke-linecap:butt;stroke-linejoin:miter;stroke-miterlimit:4;stroke-dasharray:none;stroke-dashoffset:0;stroke-opacity:1;color-rendering:auto;image-rendering:auto;shape-rendering:auto;text-rendering:auto;enable-background:accumulate"
       d="m 204.93055,10.9143 22.38158,96.08923 -42.7736,4.26175 -2.03505,-99.417186 z"
       id="path36057"
       sodipodi:nodetypes="ccccc" />
    <path
       inkscape:connector-curvature="0"
       id="path36047"
       style="color:#000000;font-style:normal;font-variant:normal;font-weight:normal;font-stretch:normal;font-size:medium;line-height:normal;font-family:sans-serif;font-variant-ligatures:normal;font-variant-position:normal;font-variant-caps:normal;font-variant-numeric:normal;font-variant-alternates:normal;font-feature-settings:normal;text-indent:0;text-align:start;text-decoration:none;text-decoration-line:none;text-decoration-style:solid;text-decoration-color:#000000;letter-spacing:normal;word-spacing:normal;text-transform:none;writing-mode:lr-tb;direction:ltr;text-orientation:mixed;dominant-baseline:auto;baseline-shift:baseline;text-anchor:start;white-space:normal;shape-padding:0;clip-rule:nonzero;display:inline;overflow:visible;visibility:visible;opacity:1;isolation:auto;mix-blend-mode:normal;color-interpolation:sRGB;color-interpolation-filters:linearRGB;solid-color:#000000;solid-opacity:1;vector-effect:none;fill:#ffd401;fill-opacity:1;fill-rule:nonzero;stroke:none;stroke-width:14;stroke-linecap:butt;stroke-linejoin:miter;stroke-miterlimit:4;stroke-dasharray:none;stroke-dashoffset:0;stroke-opacity:1;color-rendering:auto;image-rendering:auto;shape-rendering:auto;text-rendering:auto;enable-background:accumulate"
       d="m 106.06062,26.774828 -0.90847,28.34762 14.12523,3.83595 20.36723,-19.02777 z m 30.35525,-14.064245 31.87507,20.109365 -7.89255,29.45503 -19.53731,10.22472 35.55855,27.22882 -34.45473,11.298532 -36.10737,-37.753762 v 31.011542 l -31.366568,1.46503 6.26216,-91.672968 z"
       sodipodi:nodetypes="cccccccccccccccc" />
    <path
       inkscape:connector-curvature="0"
       style="color:#000000;font-style:normal;font-variant:normal;font-weight:normal;font-stretch:normal;font-size:medium;line-height:normal;font-family:sans-serif;font-variant-ligatures:normal;font-variant-position:normal;font-variant-caps:normal;font-variant-numeric:normal;font-variant-alternates:normal;font-feature-settings:normal;text-indent:0;text-align:start;text-decoration:none;text-decoration-line:none;text-decoration-style:solid;text-decoration-color:#000000;letter-spacing:normal;word-spacing:normal;text-transform:none;writing-mode:lr-tb;direction:ltr;text-orientation:mixed;dominant-baseline:auto;baseline-shift:baseline;text-anchor:start;white-space:normal;shape-padding:0;clip-rule:nonzero;display:inline;overflow:visible;visibility:visible;opacity:1;isolation:auto;mix-blend-mode:normal;color-interpolation:sRGB;color-interpolation-filters:linearRGB;solid-color:#000000;solid-opacity:1;vector-effect:none;fill:#00ade7;fill-opacity:1;fill-rule:nonzero;stroke:none;stroke-width:14;stroke-linecap:butt;stroke-linejoin:miter;stroke-miterlimit:4;stroke-dasharray:none;stroke-dashoffset:0;stroke-opacity:1;color-rendering:auto;image-rendering:auto;shape-rendering:auto;text-rendering:auto;enable-background:accumulate"
       d="m -114.25617,9.3903529 -52.47844,90.6544271 38.32633,5.17745 22.79861,-52.085692 18.898582,26.13689 25.51369,-20.11918 16.59951,24.51012 -2.87113,25.099252 37.8906897,-3.961 -24.7519497,-91.313289 -26.27903,-1.744583 -17.724489,25.49507 -7.08795,-25.847521 z"
       id="path36158" />
    <path
       inkscape:connector-curvature="0"
       id="path36045"
       style="color:#000000;font-style:normal;font-variant:normal;font-weight:normal;font-stretch:normal;font-size:medium;line-height:normal;font-family:sans-serif;font-variant-ligatures:normal;font-variant-position:normal;font-variant-caps:normal;font-variant-numeric:normal;font-variant-alternates:normal;font-feature-settings:normal;text-indent:0;text-align:start;text-decoration:none;text-decoration-line:none;text-decoration-style:solid;text-decoration-color:#000000;letter-spacing:normal;word-spacing:normal;text-transform:none;writing-mode:lr-tb;direction:ltr;text-orientation:mixed;dominant-baseline:auto;baseline-shift:baseline;text-anchor:start;white-space:normal;shape-padding:0;clip-rule:nonzero;display:inline;overflow:visible;visibility:visible;opacity:1;isolation:auto;mix-blend-mode:normal;color-interpolation:sRGB;color-interpolation-filters:linearRGB;solid-color:#000000;solid-opacity:1;vector-effect:none;fill:#3ab54a;fill-opacity:1;fill-rule:nonzero;stroke:none;stroke-width:14;stroke-linecap:butt;stroke-linejoin:miter;stroke-miterlimit:4;stroke-dasharray:none;stroke-dashoffset:0;stroke-opacity:1;color-rendering:auto;image-rendering:auto;shape-rendering:auto;text-rendering:auto;enable-background:accumulate"
       d="m -52.815478,84.229708 -6.43887,7.81762 6.42234,2.0402 1.02216,-8.62894 z m 61.6866797,-43.49036 17.2769703,3.67782 0.14058,21.00596 -31.0565003,-5.90042 z M 8.3353117,9.9856659 -19.197888,43.414128 l 10.0071497,36.84426 35.7900603,6.44456 0.42994,24.506002 44.36732,-1.20353 -1.29913,-4.0504 -7.53753,-23.586682 -22.32009,-68.800981 z"
       sodipodi:nodetypes="cccccccccccccccccccc" />
  </g>
</svg>
